<?xml version="1.0" standalone="no"?>
<!DOCTYPE svg PUBLIC "-//W3C//DTD SVG 20010904//EN"
 "http://www.w3.org/TR/2001/REC-SVG-20010904/DTD/svg10.dtd">
<svg version="1.0" xmlns="http://www.w3.org/2000/svg"
 width="1201.000000pt" height="468.000000pt" viewBox="0 0 1201.000000 468.000000"
 preserveAspectRatio="xMidYMid meet">

<g transform="translate(0.000000,468.000000) scale(0.100000,-0.100000)"
fill="#000000" stroke="none">
<path d="M0 3200 c0 -814 2 -1480 5 -1480 3 0 36 23 72 50 36 28 71 50 77 50
20 0 160 -29 202 -42 22 -7 51 -20 63 -28 l24 -16 -42 -48 c-28 -32 -39 -52
-33 -58 15 -15 83 10 116 43 34 35 77 38 106 9 29 -29 25 -35 -20 -37 -51 -3
-74 -16 -129 -71 -35 -35 -45 -52 -47 -81 -2 -46 -12 -71 -30 -71 -13 0 -26
-46 -32 -111 -1 -10 -22 -21 -60 -32 -43 -12 -70 -27 -99 -57 -44 -44 -56 -69
-69 -145 -8 -42 -12 -50 -29 -47 -11 2 -29 14 -40 28 -12 13 -24 24 -28 24 -3
0 -7 -243 -7 -540 l0 -540 2189 0 2190 0 3 58 c2 43 7 57 18 57 17 0 20 -65 6
-98 -8 -16 177 -17 3798 -17 l3806 0 0 2340 0 2340 -4737 -2 c-2606 0 -4688
-4 -4628 -8 136 -9 151 -13 158 -48 8 -41 -6 -49 -83 -50 -76 0 -100 -11 -100
-47 0 -45 58 -64 210 -70 47 -1 97 -6 111 -10 21 -5 27 -2 37 20 13 29 15 64
4 81 -4 6 -32 14 -63 18 -31 4 -64 13 -72 19 -21 17 -30 54 -16 63 14 8 198 6
212 -3 5 -3 79 -7 165 -8 223 -4 433 -16 461 -27 22 -8 22 -10 8 -32 -11 -16
-14 -38 -11 -67 11 -113 -19 -150 -116 -142 -30 3 -82 4 -115 3 -80 -2 -75 -2
-280 4 -99 3 -197 6 -218 5 -54 0 -77 9 -77 32 0 23 -18 25 -26 4 -4 -8 -13
-15 -21 -15 -8 0 -24 -5 -36 -12 -12 -6 -49 -12 -82 -13 -33 -1 -87 -7 -120
-13 -71 -15 -367 -13 -407 2 -20 7 -34 6 -52 -3 -22 -12 -29 -12 -51 3 -21 14
-25 24 -25 69 0 74 -10 86 -54 64 -21 -10 -38 -26 -42 -40 -5 -24 -40 -47 -70
-47 -8 0 -25 6 -37 14 -12 8 -42 17 -66 19 -35 3 -46 9 -58 31 -8 14 -18 24
-23 21 -6 -4 -10 -2 -10 3 0 6 -11 13 -24 16 -26 6 -86 91 -86 121 0 45 9 44
-802 45 l-768 0 0 -1480z m5170 1314 c0 -21 -4 -33 -10 -29 -6 4 -10 -5 -10
-19 0 -14 -4 -26 -10 -26 -5 0 -10 8 -10 18 0 9 -3 28 -7 41 -5 19 -3 23 9 18
11 -4 18 1 21 14 8 31 17 22 17 -17z m1272 -30 c30 -15 106 -18 126 -6 7 5 61
3 120 -4 195 -24 409 -33 761 -34 l348 0 44 25 c56 32 90 32 128 -1 38 -31 87
-47 203 -64 71 -11 86 -16 77 -27 -7 -7 -32 -13 -61 -13 -56 0 -92 -15 -84
-36 3 -7 0 -17 -7 -21 -7 -5 -23 -23 -36 -40 -12 -18 -31 -33 -41 -33 -10 0
-27 -11 -38 -25 -11 -14 -25 -25 -31 -25 -7 0 -14 -7 -17 -15 -4 -8 -10 -12
-15 -9 -5 3 -23 -3 -39 -13 -25 -14 -32 -15 -39 -5 -7 11 -9 10 -14 -2 -8 -21
-119 -23 -139 -2 -8 7 -29 21 -47 30 -17 9 -34 23 -37 31 -10 26 -11 50 -3 61
33 41 -96 76 -243 65 -53 -4 -135 -5 -182 -3 -71 4 -86 7 -84 20 2 8 17 20 35
26 47 16 54 30 11 23 -28 -4 -38 -2 -38 7 0 18 -116 31 -151 17 -24 -9 -81
-14 -156 -13 -18 0 -34 -5 -37 -14 -4 -11 -28 -14 -106 -14 -65 0 -99 -4 -95
-10 3 -5 0 -10 -7 -10 -10 0 -10 -2 1 -9 8 -5 11 -15 8 -23 -13 -36 9 -43 135
-45 l123 -3 8 -27 c4 -16 4 -59 0 -98 -4 -38 -7 -74 -7 -80 -1 -11 -14 -11
-342 -2 -132 4 -265 11 -295 17 -30 5 -70 11 -89 12 l-35 3 -2 65 c-3 88 3
116 22 100 8 -7 29 -10 47 -7 18 2 43 1 55 -4 14 -5 23 -4 25 3 2 6 28 12 57
13 48 3 87 15 47 15 -12 0 -16 5 -13 15 7 17 -21 23 -147 29 l-90 4 -4 91 -3
92 183 -7 c122 -4 192 -11 210 -20z m-1295 -126 c-3 -7 -5 -2 -5 12 0 14 2 19
5 13 2 -7 2 -19 0 -25z m4173 -4 c58 -9 146 -22 195 -29 50 -7 81 -13 70 -15
l-20 -1 20 -8 c13 -5 -18 -10 -83 -13 -126 -6 -139 -14 -122 -78 10 -36 9 -50
-5 -87 -18 -47 -42 -59 -98 -49 -20 3 -39 0 -50 -8 -15 -12 -25 -10 -71 13
-71 34 -84 57 -67 119 7 26 16 49 22 50 23 9 6 30 -28 35 -41 7 -268 -9 -285
-19 -6 -4 -29 -8 -53 -9 -35 -3 -47 1 -66 21 -19 20 -20 24 -6 29 8 4 18 17
21 29 3 13 15 27 27 32 34 15 476 6 599 -12z m-6416 -26 c8 -13 5 -26 -9 -54
-25 -47 -38 -51 -65 -22 -11 13 -30 32 -41 44 -19 20 -20 22 -3 38 22 23 102
18 118 -6z m735 3 c10 -7 6 -11 -17 -16 -35 -7 -102 3 -102 16 0 12 101 11
119 0z m-246 -36 c-1 -5 -9 -12 -18 -13 -26 -6 -66 7 -59 19 8 13 80 7 77 -6z
m1787 -17 c0 -18 -2 -20 -9 -8 -6 8 -7 18 -5 22 9 14 14 9 14 -14z m5303 -30
c4 -10 7 -10 14 0 6 8 20 10 41 6 26 -5 32 -11 32 -33 0 -17 -3 -22 -8 -13 -5
7 -28 13 -53 15 -42 2 -75 18 -62 31 11 10 31 7 36 -6z m-5314 -194 c-6 -8 -7
-14 -2 -14 14 0 23 -84 16 -145 l-6 -50 -13 35 -12 35 -1 -35 c0 -19 3 -52 8
-72 6 -23 5 -40 -2 -47 -7 -7 -7 -18 3 -36 17 -31 24 -26 11 8 -7 17 -7 28 -1
32 6 4 10 20 10 37 0 17 2 29 4 27 11 -11 44 -1729 33 -1729 -3 0 -20 20 -37
45 -19 28 -46 52 -73 64 -23 11 -51 29 -61 40 -10 11 -33 23 -50 26 -43 9
-218 -22 -232 -40 -6 -8 -15 -15 -20 -15 -5 0 -15 -9 -21 -20 -11 -16 -10 -21
5 -29 15 -9 15 -10 0 -11 -9 0 -18 5 -20 11 -2 7 -24 12 -48 12 -25 0 -40 2
-34 4 12 4 8 102 -8 186 -11 59 -16 65 -36 45 -10 -9 -16 -9 -28 4 -14 13 -14
17 0 30 9 9 11 19 5 25 -11 11 17 53 37 53 19 0 18 3 -11 46 -14 20 -25 44
-25 53 0 9 -13 32 -28 51 -36 42 -81 46 -129 10 -38 -27 -50 -59 -59 -145 -9
-84 -14 -91 -54 -76 -18 6 -46 11 -62 11 -17 0 -37 9 -49 23 -60 66 -90 104
-100 127 -11 26 -79 84 -160 135 -60 38 -90 75 -82 103 3 12 9 22 14 22 5 0
14 11 21 25 6 13 15 22 19 19 5 -3 6 2 3 10 -4 11 0 16 10 16 9 0 16 -5 16
-11 0 -7 13 -9 38 -5 20 4 93 8 162 10 156 4 150 3 150 22 0 13 7 15 36 11 29
-5 52 1 105 26 42 19 69 38 69 48 0 8 11 26 25 39 20 19 27 21 40 10 13 -10
22 -8 54 15 22 14 42 33 45 42 5 12 19 14 74 9 91 -7 155 -17 167 -26 6 -4 30
-10 54 -14 40 -6 43 -5 38 13 -7 28 13 50 43 48 19 -2 26 -8 28 -27 7 -64 11
-70 41 -64 16 3 31 2 34 -3 8 -12 16 -330 17 -633 1 -226 3 -260 16 -249 15
12 19 24 5 15 -11 -7 -14 335 -2 353 6 9 7 -23 4 -87 -5 -78 -3 -102 7 -102 8
0 10 8 5 27 -10 41 5 218 17 202 7 -11 8 -9 4 4 -3 10 -6 26 -7 35 0 14 -2 13
-9 -3 -7 -17 -9 -14 -10 15 -1 29 -3 32 -10 15 -7 -16 -9 -13 -9 17 -1 20 4
40 10 44 8 4 10 30 7 75 -6 73 -3 83 11 47 7 -17 8 -12 6 22 -4 64 -6 68 -15
40 -11 -32 -3 185 8 226 5 16 6 40 2 54 -6 24 -7 24 -14 -8 -4 -18 -10 -32
-12 -29 -11 11 -28 691 -18 743 5 28 9 32 20 23 11 -9 14 -6 14 19 0 24 -4 30
-15 26 -12 -5 -15 3 -15 41 0 41 2 46 15 35 13 -11 14 -2 10 66 -3 44 -1 88 3
99 4 12 8 -19 10 -74 2 -60 -1 -98 -9 -107z m5231 187 c0 -6 -4 -12 -9 -15
-16 -10 -19 -55 -4 -68 8 -6 12 -17 9 -25 -3 -7 0 -13 8 -13 7 0 19 -23 26
-52 9 -33 21 -53 32 -56 10 -2 18 -11 18 -18 0 -9 12 -14 36 -14 31 0 70 -21
59 -32 -2 -2 2 -28 10 -58 35 -130 25 -180 -38 -180 -17 -1 -72 -10 -122 -20
-174 -39 -231 -49 -303 -54 -40 -3 -78 -9 -84 -12 -6 -4 -36 -13 -67 -20 -31
-7 -94 -22 -141 -33 -95 -23 -436 -91 -575 -115 -49 -9 -157 -27 -240 -41 -82
-14 -172 -31 -198 -37 -27 -6 -74 -14 -105 -18 -31 -5 -108 -18 -170 -29 -124
-23 -192 -20 -192 8 1 28 26 51 56 51 43 0 74 11 74 25 0 7 15 22 33 34 17 11
30 24 27 28 -2 4 10 17 27 28 18 11 33 27 33 35 1 24 25 50 46 50 16 0 17 2 4
10 -13 9 -13 11 0 20 8 5 21 8 28 5 23 -9 42 7 42 36 0 21 5 28 18 27 43 -3
62 3 62 20 0 10 5 23 12 30 7 7 8 12 4 12 -5 0 -3 7 4 15 10 12 10 15 -3 15
-8 0 -17 5 -19 11 -2 6 -13 9 -23 6 -19 -5 -19 -5 3 -12 12 -4 22 -15 22 -26
0 -15 -7 -19 -40 -19 -32 0 -40 4 -40 18 0 10 -5 23 -11 29 -8 8 0 14 28 23
21 7 56 21 78 30 22 10 101 37 175 60 242 74 265 82 275 91 5 5 20 9 33 9 14
0 41 4 61 9 20 5 72 17 116 26 105 22 172 41 270 75 44 15 112 33 150 40 114
21 187 37 235 53 113 37 149 45 208 46 34 1 62 -3 62 -8z m599 -13 c36 -6 60
-13 54 -15 -20 -7 -15 -20 10 -27 l22 -7 -22 -9 c-24 -10 -28 -50 -6 -50 16 0
16 -5 2 -31 -5 -11 -15 -17 -20 -13 -6 3 -33 -4 -60 -17 -46 -23 -48 -26 -49
-67 0 -24 -6 -55 -14 -71 -17 -32 -15 -59 4 -71 10 -6 7 -10 -13 -15 -40 -10
-33 -23 16 -28 l42 -4 -48 -1 c-26 -1 -65 -11 -86 -21 -43 -22 -136 -38 -144
-25 -7 12 11 113 25 141 13 26 6 134 -16 237 -22 104 -20 106 121 106 64 0
146 -5 182 -12z m-5849 -110 c0 -25 -3 -29 -10 -18 -13 20 -13 50 0 50 6 0 10
-15 10 -32z m-882 -59 c-6 -19 -16 -37 -21 -40 -5 -4 -7 -16 -4 -28 3 -12 0
-19 -7 -18 -12 2 -12 -7 -1 -35 4 -11 3 -18 -4 -18 -6 0 -11 -6 -11 -14 0 -8
-9 -18 -20 -21 -11 -4 -17 -11 -14 -17 4 -5 9 -6 13 -2 9 14 65 18 56 5 -3 -6
1 -14 9 -17 9 -3 16 -15 16 -25 0 -10 9 -28 20 -39 11 -11 17 -20 14 -20 -3 0
4 -15 15 -34 34 -55 28 -73 -55 -161 -88 -94 -138 -161 -129 -175 4 -6 17 -3
33 8 15 11 36 21 47 24 11 3 28 9 38 13 11 5 17 3 17 -8 0 -18 47 -11 75 12
19 15 19 15 5 -4 -8 -11 -30 -35 -50 -53 -28 -26 -41 -31 -64 -27 -16 3 -57 5
-91 5 -58 0 -63 2 -67 24 -5 24 8 148 18 176 4 13 6 13 14 0 8 -12 10 -11 10
6 0 11 4 24 9 30 6 5 13 52 16 104 4 77 3 90 -6 70 l-12 -25 -9 35 c-14 49
-11 90 7 110 8 9 15 19 15 23 0 3 14 21 30 39 17 18 33 42 36 53 7 20 56 86
61 81 2 -1 -2 -18 -9 -37z m-1470 25 c32 -9 27 -26 -5 -18 -32 8 -55 24 -32
24 7 0 24 -3 37 -6z m182 -2 c0 -4 -27 -9 -60 -10 -36 -2 -60 2 -60 8 0 6 26
10 60 10 33 0 60 -4 60 -8z m4120 -35 c0 -23 -72 -37 -189 -37 -85 0 -111 3
-111 13 0 24 54 35 178 36 96 1 122 -2 122 -12z m-3892 -33 c12 -2 21 -10 20
-17 -2 -7 9 -28 25 -48 15 -20 27 -41 27 -48 0 -19 -41 -28 -105 -24 -89 6
-105 11 -115 38 -11 29 -22 31 -40 10 -16 -19 -29 -19 -52 2 -11 10 -18 13
-17 8 7 -30 -14 -45 -62 -45 -46 0 -50 2 -65 34 -15 29 -15 38 -3 65 12 27 19
31 52 31 21 0 36 -4 33 -8 -9 -15 54 -54 76 -48 12 3 28 1 37 -4 20 -10 42 6
58 42 12 26 15 27 60 22 26 -3 58 -7 71 -10z m-654 -27 c10 -7 17 -21 15 -30
-4 -16 -6 -16 -26 -2 -13 9 -23 23 -23 31 0 18 11 18 34 1z m4471 -27 c-3 -5
-15 -10 -25 -10 -10 0 -22 5 -25 10 -4 6 7 10 25 10 18 0 29 -4 25 -10z
m-4069 -133 c6 -6 -24 -74 -36 -82 -13 -8 -66 21 -74 40 -12 33 -6 54 17 57
22 4 85 -6 93 -15z m8067 16 c-13 -2 -33 -2 -45 0 -13 2 -3 4 22 4 25 0 35 -2
23 -4z m-7755 -18 c34 -6 39 -14 20 -33 -7 -7 -9 -12 -4 -12 4 0 -5 -11 -21
-24 -22 -18 -43 -24 -95 -28 -37 -2 -62 -1 -56 3 7 4 -3 9 -23 11 -41 4 -46
21 -20 65 20 31 20 31 93 27 40 -2 88 -6 106 -9z m-758 -271 c0 -14 -4 -22
-10 -19 -5 3 -10 17 -10 31 0 14 4 22 10 19 6 -3 10 -17 10 -31z m530 7 c0 -5
36 -11 80 -13 44 -2 80 0 80 5 0 4 36 7 80 7 l80 0 1 -27 c1 -17 3 -21 6 -10
6 23 40 22 53 -3 6 -11 21 -20 34 -20 35 0 41 -27 8 -36 l-27 -7 30 -7 c17 -4
49 -5 73 -2 27 3 42 1 42 -7 0 -6 -14 -11 -31 -11 -27 0 -30 -2 -19 -15 7 -8
9 -15 4 -15 -24 0 41 -31 67 -32 33 -1 52 -18 20 -18 -28 0 -27 -14 2 -28 12
-6 16 -11 9 -11 -20 -1 -4 -21 17 -21 28 0 76 -50 73 -75 -2 -16 3 -24 17 -28
12 -3 24 -1 27 4 9 15 31 10 38 -7 9 -24 29 -314 22 -322 -4 -3 -23 11 -44 32
-50 52 -85 77 -167 120 -38 20 -86 52 -105 70 -96 90 -195 146 -259 146 -10 0
-32 16 -48 36 -40 51 -78 90 -161 166 l-73 67 16 25 c10 14 24 26 32 26 8 0
11 5 8 10 -3 6 -1 10 4 10 6 0 11 -4 11 -9z m-500 -61 c0 -10 7 -20 15 -24 8
-3 15 -11 15 -17 0 -8 -7 -6 -18 4 -10 10 -24 17 -31 17 -8 0 -11 6 -7 16 3 9
6 20 6 25 0 6 5 7 10 4 6 -3 10 -14 10 -25z m44 -66 c9 -3 16 -13 16 -21 0
-10 -6 -13 -16 -9 -9 3 -18 6 -20 6 -2 0 -4 7 -4 15 0 17 2 18 24 9z m4078
-24 c86 -4 162 -11 168 -15 14 -9 13 -178 -2 -210 -12 -27 -38 -34 -38 -10 0
8 -5 15 -11 15 -6 0 -17 -7 -25 -15 -18 -17 -188 -20 -516 -8 -158 5 -188 9
-188 21 0 13 42 15 343 10 188 -2 308 -2 267 2 -41 4 -151 8 -245 9 -93 0
-214 4 -267 8 l-98 6 0 105 0 105 228 -7 c125 -4 298 -11 384 -16z m-4014 -41
c2 -5 12 -9 22 -9 11 0 23 -6 27 -13 4 -8 20 -22 36 -32 20 -13 27 -25 27 -50
0 -48 -15 -55 -108 -49 -55 4 -82 2 -82 -5 0 -7 -8 -7 -26 -1 -14 6 -35 10
-47 10 -18 0 -19 -2 -7 -10 9 -6 10 -10 3 -10 -6 0 -15 5 -18 10 -4 6 -63 10
-144 10 -100 0 -142 4 -156 14 -16 11 -24 11 -51 0 -60 -25 -103 5 -104 73 0
48 83 70 120 33 15 -15 25 -18 38 -11 10 5 58 9 108 8 55 -1 101 4 121 12 28
11 38 11 65 -1 29 -13 55 -14 146 -9 39 2 23 21 -18 21 -41 0 -55 15 -22 23
23 7 66 -2 70 -14z m1035 -66 c-7 -2 -19 -2 -25 0 -7 3 -2 5 12 5 14 0 19 -2
13 -5z m4604 -9 c-3 -3 -12 -4 -19 -1 -8 3 -5 6 6 6 11 1 17 -2 13 -5z m943
-92 c91 -2 273 -5 405 -6 132 -1 254 -5 271 -10 34 -8 60 -45 51 -70 -6 -14
-63 -15 -519 -11 -580 6 -631 8 -664 30 -26 17 -32 49 -11 62 6 4 59 6 117 5
58 -2 116 1 130 7 14 5 32 7 40 3 8 -4 89 -9 180 -10z m-6462 -15 c8 -10 6
-13 -9 -14 -19 -2 -25 8 -12 20 8 9 9 9 21 -6z m-158 -35 c0 -4 17 -6 38 -5
156 12 149 13 180 -15 17 -15 42 -35 56 -45 14 -10 29 -30 32 -45 4 -15 18
-41 31 -58 12 -17 23 -36 23 -43 0 -7 40 -52 88 -101 49 -49 103 -108 121
-132 99 -135 121 -167 121 -176 0 -15 65 -125 96 -162 27 -32 107 -77 203
-114 46 -18 56 -27 70 -62 10 -26 56 -84 124 -154 68 -72 138 -159 192 -239
61 -92 116 -157 199 -240 l115 -115 -24 -28 c-23 -27 -66 -152 -79 -230 l-7
-36 -67 -8 c-64 -8 -336 -11 -377 -4 -11 2 -25 10 -32 19 -9 13 -30 16 -110
14 -118 -3 -153 -10 -153 -29 0 -8 -12 -19 -26 -24 -44 -17 -89 -11 -125 15
-19 14 -47 33 -63 42 -17 10 -45 35 -64 55 -24 25 -46 39 -74 43 -51 9 -61 35
-55 141 5 96 27 149 71 171 81 41 109 90 111 198 1 59 7 89 20 108 15 24 17
40 11 115 -4 48 -7 100 -7 116 0 19 -11 44 -33 70 -18 23 -45 61 -59 86 -50
86 -105 128 -214 165 -123 43 -185 51 -270 35 -71 -13 -143 -44 -143 -60 0 -6
-10 -10 -21 -10 -32 0 -148 -124 -184 -195 -26 -52 -30 -71 -30 -140 0 -44 6
-99 14 -122 13 -38 12 -45 -2 -61 -28 -31 -22 -181 10 -245 7 -15 31 -38 53
-52 33 -21 40 -31 46 -71 7 -47 0 -179 -12 -221 -12 -43 -34 -27 -34 25 0 32
-8 59 -25 87 -13 22 -25 51 -25 65 0 14 -8 41 -19 60 -10 19 -30 71 -45 115
-41 124 -93 178 -203 210 -30 8 -31 55 -2 81 45 40 61 103 38 145 -8 16 -7 26
6 45 19 30 13 54 -13 54 -23 0 -42 19 -42 41 0 19 32 30 51 18 20 -12 41 -11
34 2 -4 5 -2 23 5 39 9 21 18 29 33 27 16 -1 28 10 47 46 15 26 29 45 32 42 2
-3 19 0 37 6 24 8 29 14 21 24 -8 10 -4 14 16 19 l27 7 -30 18 c-23 14 -61 20
-163 26 -161 8 -183 15 -178 52 4 35 43 55 109 57 27 1 51 5 55 9 4 4 2 7 -4
7 -7 0 -12 5 -12 11 0 6 9 9 20 6 12 -3 20 0 20 8 0 7 18 15 45 20 28 4 55 16
70 31 14 14 36 24 52 24 15 0 35 5 43 10 13 8 13 10 0 10 -9 0 -5 6 10 17 14
10 28 17 32 16 4 -2 5 4 2 12 -8 20 40 62 85 75 20 6 60 14 89 17 33 4 52 10
52 19 0 7 18 18 40 24 30 8 40 16 40 31 0 19 5 20 85 17 78 -3 85 -1 85 16 0
27 -30 47 -53 35 -9 -6 -15 -13 -13 -18 3 -4 -36 -8 -87 -10 -57 -1 -95 -7
-99 -14 -5 -8 -8 -7 -8 4 0 25 -19 29 -184 35 -83 3 -156 10 -163 16 -8 6 -19
6 -32 -1 -25 -14 -76 -14 -100 -1 -12 6 -29 5 -49 -2 -37 -14 -74 1 -90 36
-20 43 48 83 97 56 18 -9 27 -8 44 3 17 10 50 13 137 10 63 -2 142 0 175 5 77
12 145 14 145 4z m3938 -12 c1 0 2 -7 2 -15 0 -9 -9 -15 -24 -15 -13 0 -27 -7
-30 -16 -3 -8 -14 -14 -23 -13 -10 0 -20 0 -23 -1 -3 -1 -27 -3 -55 -4 -46 -2
-86 16 -77 33 2 3 -4 7 -13 7 -12 2 -12 1 1 -3 14 -4 14 -7 3 -14 -10 -6 -10
-9 -1 -9 6 0 12 -6 12 -14 0 -15 -30 -26 -75 -26 -17 0 -36 -5 -43 -12 -8 -8
-15 -8 -24 0 -10 7 -18 6 -33 -5 -16 -13 -17 -15 -2 -10 9 4 17 2 17 -3 0 -6
-5 -10 -11 -10 -5 0 -8 -4 -4 -10 3 -5 11 -7 18 -4 7 2 17 -6 22 -18 6 -13 17
-22 24 -20 7 1 10 -2 6 -8 -3 -5 1 -10 9 -10 18 0 21 -16 5 -25 -6 -4 -18 0
-27 9 -56 52 -99 86 -110 86 -7 0 -11 4 -8 9 3 5 -2 8 -12 7 -14 -1 -17 9 -20
63 l-3 63 248 -6 c136 -3 249 -5 251 -6z m1237 -45 c0 -49 -1 -50 -30 -51 -49
-1 -55 5 -55 51 0 37 3 44 23 48 55 11 62 5 62 -48z m-1198 29 c-3 -3 -12 -4
-19 -1 -8 3 -5 6 6 6 11 1 17 -2 13 -5z m213 -4 c0 -5 -6 -10 -12 -10 -10 0
-10 -2 0 -9 7 -4 25 -7 40 -5 16 2 19 1 8 -2 -15 -5 -16 -8 -5 -14 17 -11 12
-15 -25 -24 -25 -6 -28 -5 -23 13 4 16 0 21 -15 21 -17 0 -19 -5 -14 -25 5
-21 3 -25 -17 -25 -13 0 -52 -3 -86 -6 l-61 -7 0 38 c0 24 6 43 18 51 21 16
192 20 192 4z m2356 -80 c20 -8 36 -8 56 1 23 9 35 9 56 -1 33 -15 232 -14
267 2 19 8 38 8 77 -1 29 -6 116 -13 193 -14 139 -2 139 -2 154 -28 29 -53 16
-59 -136 -61 -76 -1 -147 -1 -158 0 -50 5 -628 2 -644 -3 -9 -3 -39 -1 -67 4
-37 7 -56 6 -78 -5 -26 -12 -31 -12 -46 1 -13 11 -24 13 -41 7 -36 -14 -71 3
-67 30 2 18 10 24 38 26 19 2 44 12 55 22 17 16 35 18 135 16 63 -2 124 0 135
5 28 11 40 11 71 -1z m-1406 -24 c0 -3 -4 -8 -10 -11 -5 -3 -10 -1 -10 4 0 6
5 11 10 11 6 0 10 -2 10 -4z m-5155 -17 c4 -6 4 -13 0 -17 -3 -3 -10 -1 -14 6
-4 7 -16 10 -27 6 -16 -5 -16 -4 -4 5 19 14 37 14 45 0z m1645 1 c0 -5 -19 -9
-42 -9 -40 1 -41 2 -13 9 44 11 55 11 55 0z m3380 6 c0 -2 -7 -7 -16 -10 -8
-3 -12 -2 -9 4 6 10 25 14 25 6z m100 -28 c21 -45 45 -51 37 -9 -6 29 -5 31
23 31 30 0 41 -14 18 -23 -29 -10 20 -37 97 -53 65 -13 83 -14 100 -4 18 12
19 11 7 -3 -10 -11 -10 -17 -1 -23 6 -4 16 0 21 10 6 10 21 16 41 15 26 -1 27
-3 8 -6 -13 -3 -34 -17 -47 -33 -18 -21 -36 -29 -76 -34 -60 -8 -127 -37 -153
-66 -10 -11 -24 -20 -31 -20 -14 0 -165 -63 -199 -82 -11 -7 -56 -31 -100 -53
-124 -64 -158 -89 -195 -143 -44 -64 -111 -100 -190 -103 -64 -3 -143 -21
-220 -52 -83 -33 -223 -139 -254 -192 -15 -24 -32 -48 -40 -52 -7 -4 -18 -17
-24 -28 -6 -12 -22 -20 -39 -21 -16 -1 -39 -5 -51 -8 -17 -6 -22 -3 -22 9 0
10 -10 34 -21 55 -20 35 -49 54 -111 74 -10 3 -18 13 -18 23 -1 10 -7 34 -14
53 -10 31 -10 40 6 65 23 38 23 91 0 137 -18 34 -18 39 -2 100 9 34 22 76 28
91 28 66 10 162 -42 230 -32 42 -32 43 1 50 26 5 26 4 8 -9 -18 -14 -18 -14 1
-14 11 0 25 5 31 11 15 15 70 2 83 -19 8 -15 11 -15 20 -2 8 12 10 11 10 -7 0
-34 34 -46 114 -41 39 2 63 3 54 1 -10 -3 -18 -9 -18 -14 0 -12 27 -11 53 2
16 9 22 9 25 0 5 -16 78 -14 96 4 21 21 43 19 51 -5 6 -18 12 -20 43 -14 20 4
42 10 47 14 11 7 83 6 185 -5 48 -5 79 -2 120 11 30 9 88 18 128 20 75 2 87 6
87 27 0 7 21 15 47 19 26 3 55 13 64 22 9 9 32 16 55 16 35 0 40 2 34 19 -5
15 -2 18 14 14 13 -3 23 2 30 15 6 11 21 23 33 25 13 2 25 5 28 5 3 1 12 -13
20 -30z m1218 -99 c12 -8 22 -18 22 -23 0 -6 -5 -5 -12 2 -18 18 -56 15 -104
-10 l-43 -21 2 -120 3 -119 58 -29 c55 -27 61 -28 82 -14 28 18 34 19 34 2 0
-7 5 -18 12 -25 9 -9 14 -6 22 10 7 13 25 25 45 29 18 4 37 12 40 18 4 6 25
12 47 12 103 4 728 -12 738 -19 6 -3 33 -9 60 -12 27 -3 51 -10 53 -16 11 -33
-148 -45 -622 -48 l-300 -1 -3 -23 c-2 -14 5 -33 18 -47 l22 -23 -21 -21 c-12
-12 -28 -21 -36 -21 -20 0 -37 -44 -34 -89 5 -70 -1 -100 -19 -110 -27 -14
-44 2 -45 44 -2 44 -23 57 -36 23 -22 -57 -65 -59 -113 -4 -27 30 -38 76 -18
76 5 0 8 13 7 30 -1 19 -7 30 -17 30 -8 0 -34 10 -58 22 -44 23 -47 33 -28 79
5 12 -2 25 -20 42 -27 25 -27 26 -11 60 12 25 15 52 12 103 -6 75 12 184 30
184 6 0 22 12 36 26 23 25 28 26 100 21 42 -3 86 -11 97 -18z m62 -29 c0 -5
-2 -10 -4 -10 -3 0 -8 5 -11 10 -3 6 -1 10 4 10 6 0 11 -4 11 -10z m40 -82 c0
-18 -2 -20 -9 -8 -6 8 -7 18 -5 22 9 14 14 9 14 -14z m-4539 -88 c26 -14 25
-33 -2 -25 -14 5 -19 3 -15 -3 3 -6 0 -12 -6 -15 -7 -2 -9 -8 -5 -13 4 -4 17
-3 27 4 26 16 27 16 46 -13 34 -52 -29 -115 -67 -67 -31 38 -40 64 -33 95 11
51 18 56 55 37z m3859 -14 c0 -3 -4 -16 -9 -29 -7 -17 -5 -32 4 -50 7 -14 11
-28 8 -31 -3 -3 0 -12 6 -20 8 -10 29 -14 63 -13 59 2 71 -12 36 -41 -13 -11
-36 -31 -51 -43 -26 -22 -87 -146 -87 -176 0 -21 17 -23 90 -11 60 10 73 10
80 -2 13 -22 -7 -50 -37 -50 -41 0 -103 -22 -104 -37 -1 -7 -2 -22 -3 -32 0
-11 -4 -23 -8 -27 -15 -14 -9 -74 7 -74 18 0 20 -17 3 -23 -10 -3 -10 -7 0
-20 7 -9 12 -32 10 -53 -2 -31 -9 -41 -38 -57 -19 -10 -44 -27 -55 -37 -24
-21 -84 -33 -121 -24 l-27 7 8 96 c9 106 8 124 -1 194 l-6 49 66 -7 c84 -9
112 -2 131 35 22 42 11 54 -39 45 -87 -14 -78 -25 -99 124 -15 112 -16 136 -4
150 7 9 19 28 27 44 7 15 30 39 49 54 20 15 38 29 41 32 15 17 60 37 60 27z
m680 -18 c0 -6 -7 -7 -16 -4 -9 3 -18 6 -20 6 -3 0 -3 4 1 10 7 11 35 2 35
-12z m-3873 -30 c-3 -8 -6 -5 -6 6 -1 11 2 17 5 13 3 -3 4 -12 1 -19z m3933
-4 c0 -9 -5 -14 -12 -12 -18 6 -21 28 -4 28 9 0 16 -7 16 -16z m-4669 -40 c12
-14 11 -16 -5 -13 -11 2 -21 10 -24 17 -5 17 13 15 29 -4z m6607 -42 c2 -14
-2 -22 -11 -22 -19 0 -40 26 -32 40 11 18 40 6 43 -18z m-6534 -33 c-3 -5 -14
-5 -25 1 -26 14 -24 18 6 12 14 -2 22 -8 19 -13z m31 -199 c-3 -5 -10 -10 -16
-10 -5 0 -9 5 -9 10 0 6 7 10 16 10 8 0 12 -4 9 -10z m4810 -4 c50 -4 148 -9
220 -11 l130 -4 9 -28 c4 -15 20 -40 33 -55 18 -19 29 -47 38 -104 16 -90 10
-133 -30 -222 -24 -54 -26 -66 -16 -89 14 -30 8 -37 -49 -53 -87 -25 -125 -5
-135 72 -9 76 -22 111 -67 185 -41 67 -40 82 4 83 9 0 19 4 23 9 7 13 -31 24
-56 16 -22 -7 -79 12 -79 26 0 4 24 9 52 11 41 2 54 7 56 21 3 15 -7 17 -105
17 -64 0 -132 6 -166 15 -32 8 -67 15 -77 15 -17 0 -20 7 -20 45 0 69 -2 69
235 51z m-4535 -90 c0 -3 -4 -8 -10 -11 -5 -3 -10 -1 -10 4 0 6 5 11 10 11 6
0 10 -2 10 -4z m3855 -66 c3 -5 -1 -10 -9 -10 -9 0 -16 5 -16 10 0 6 4 10 9
10 6 0 13 -4 16 -10z m79 -6 c22 -9 20 -24 -3 -24 -28 0 -52 11 -45 21 6 10
26 12 48 3z m-2611 -18 c6 -15 -19 -56 -34 -56 -12 0 -11 12 1 44 10 29 25 34
33 12z m2711 -2 c9 -3 16 -10 16 -16 0 -14 -63 -5 -68 10 -4 13 25 16 52 6z
m-2694 -88 c0 -25 5 -48 10 -51 17 -10 11 -35 -8 -35 -10 0 -29 -11 -42 -25
-45 -47 -61 -30 -50 54 7 57 30 86 62 78 11 -3 15 0 11 9 -3 8 0 14 6 14 6 0
11 -19 11 -44z m2270 -27 c-17 -31 -30 -32 -30 -1 0 25 3 29 20 25 15 -4 17
-9 10 -24z m456 -182 c2 -7 1 -24 -5 -38 l-9 -24 -11 28 c-6 16 -11 33 -11 38
0 14 30 11 36 -4z m-596 -51 c23 -1 25 -5 27 -46 1 -26 -4 -55 -13 -67 -7 -12
-14 -31 -14 -42 0 -10 -6 -21 -14 -24 -7 -3 -26 -35 -42 -71 -16 -36 -31 -66
-34 -66 -4 0 -25 29 -49 65 -44 66 -48 100 -13 107 12 2 17 15 19 43 1 22 5
57 8 78 l7 38 47 -7 c25 -4 57 -7 71 -8z m1606 -56 l28 -11 -32 -19 c-17 -11
-34 -31 -38 -45 -4 -18 -16 -27 -43 -35 -51 -13 -74 -45 -105 -142 -11 -35
-34 -20 -37 25 -7 75 3 110 34 125 15 7 35 24 43 38 17 25 90 74 111 74 6 0
24 -5 39 -10z m-9266 -188 c0 -4 -7 -18 -16 -30 -8 -12 -22 -54 -30 -94 -21
-101 -31 -112 -52 -55 -16 44 -15 88 3 111 8 11 15 27 15 36 0 9 5 21 12 28
13 13 68 17 68 4z m1484 -351 c7 -11 -50 -61 -69 -61 -18 0 -26 14 -19 33 10
27 76 48 88 28z m-1326 -103 c47 -23 7 -44 -64 -33 -49 7 -62 19 -43 41 13 16
65 12 107 -8z m2799 2 c1 -11 -2 -22 -6 -25 -5 -2 -8 7 -8 20 0 30 12 34 14 5z
m69 -20 c20 -8 29 -8 34 1 6 8 9 8 14 0 4 -6 21 -11 37 -11 17 0 28 -4 25 -9
-6 -10 149 -26 163 -17 14 9 41 -4 41 -20 0 -16 -9 -17 -140 -20 -102 -2 -146
-7 -157 -17 -11 -12 -34 -8 -50 8 -8 9 -23 13 -33 10 -10 -3 -22 0 -26 6 -5 9
-2 10 9 6 8 -3 20 0 25 6 11 13 12 17 12 47 0 23 7 24 46 10z m654 -920 c-14
-4 -44 -8 -67 -9 -23 -1 -43 -5 -45 -9 -1 -5 -37 -6 -78 -3 l-75 5 125 12
c158 14 173 14 140 4z"/>
<path d="M6457 4429 c-9 -6 -17 -14 -17 -19 0 -16 30 -11 37 5 8 21 1 25 -20
14z"/>
<path d="M6940 4430 c-13 -8 -12 -10 3 -10 9 0 17 5 17 10 0 12 -1 12 -20 0z"/>
<path d="M6118 4393 c-37 -3 -48 -8 -48 -21 0 -13 10 -17 48 -18 26 0 75 -3
109 -6 46 -4 65 -2 74 8 9 11 7 14 -14 14 -14 0 -32 7 -41 15 -14 15 -29 15
-128 8z"/>
<path d="M6404 4230 c-6 -6 -9 -22 -6 -36 4 -23 8 -25 35 -20 37 8 36 6 39 37
3 20 -2 24 -27 27 -17 2 -35 -2 -41 -8z"/>
<path d="M6610 4200 c30 -5 61 -4 70 1 10 5 -10 8 -55 7 l-70 0 55 -8z"/>
<path d="M6123 4163 c9 -2 23 -2 30 0 6 3 -1 5 -18 5 -16 0 -22 -2 -12 -5z"/>
<path d="M6178 4153 c7 -3 16 -2 19 1 4 3 -2 6 -13 5 -11 0 -14 -3 -6 -6z"/>
<path d="M6698 4141 c-10 -3 -14 -11 -10 -17 9 -14 72 -24 72 -12 0 5 9 6 20
3 11 -4 20 -2 20 4 0 6 -15 11 -33 11 -18 0 -37 4 -42 9 -6 5 -18 6 -27 2z"/>
<path d="M5182 2740 c0 -19 2 -27 5 -17 2 9 2 25 0 35 -3 9 -5 1 -5 -18z"/>
<path d="M4616 2495 c-19 -8 -25 -15 -17 -19 7 -4 18 -2 26 4 9 7 15 8 15 2 0
-9 40 -25 47 -18 2 1 -7 12 -20 23 -19 18 -26 19 -51 8z"/>
<path d="M5171 2294 c0 -11 3 -14 6 -6 3 7 2 16 -1 19 -3 4 -6 -2 -5 -13z"/>
<path d="M9982 3843 c-17 -4 -21 -9 -16 -28 4 -16 0 -27 -17 -38 l-22 -16 24
-20 c13 -11 30 -20 37 -21 6 0 12 -7 12 -15 0 -11 12 -15 46 -15 38 0 45 3 40
16 -3 9 -6 33 -6 55 0 28 -4 39 -15 39 -8 0 -15 7 -15 15 0 12 -32 38 -42 34
-2 -1 -13 -4 -26 -6z"/>
<path d="M9906 3781 c-4 -7 -5 -15 -2 -18 9 -9 19 4 14 18 -4 11 -6 11 -12 0z"/>
<path d="M8730 3660 c0 -5 9 -10 20 -10 11 0 20 5 20 10 0 6 -9 10 -20 10 -11
0 -20 -4 -20 -10z"/>
<path d="M10023 3663 c15 -2 37 -2 50 0 12 2 0 4 -28 4 -27 0 -38 -2 -22 -4z"/>
<path d="M3198 3388 c3 -11 8 -15 11 -10 3 5 13 11 21 14 10 3 6 6 -11 10 -22
4 -25 2 -21 -14z"/>
<path d="M3455 3370 c-18 -8 -18 -9 5 -9 14 0 34 4 45 9 18 8 18 9 -5 9 -14 0
-34 -4 -45 -9z"/>
<path d="M3390 3350 c0 -5 7 -10 15 -10 7 0 18 -8 24 -17 5 -10 12 -15 16 -11
8 7 -30 48 -45 48 -5 0 -10 -4 -10 -10z"/>
<path d="M3221 3341 c-11 -7 -11 -9 0 -14 10 -4 9 -6 -3 -6 -9 -1 -19 4 -21 9
-3 6 -4 5 -3 -2 3 -15 154 -24 167 -11 4 4 -22 7 -59 6 -37 -1 -61 0 -54 3 6
3 10 10 6 15 -7 11 -15 11 -33 0z"/>
<path d="M3557 3339 c-9 -6 -21 -8 -26 -5 -5 3 -11 -1 -14 -8 -5 -12 2 -13 31
-9 43 7 49 10 36 23 -5 5 -16 5 -27 -1z"/>
<path d="M3453 3187 c-2 -4 12 -6 31 -5 20 2 36 6 36 10 0 9 -60 5 -67 -5z"/>
<path d="M3597 3189 c7 -7 15 -10 18 -7 3 3 -2 9 -12 12 -14 6 -15 5 -6 -5z"/>
<path d="M3553 3163 c9 -2 25 -2 35 0 9 3 1 5 -18 5 -19 0 -27 -2 -17 -5z"/>
<path d="M3520 3130 c0 -13 20 -13 40 0 12 8 9 10 -12 10 -16 0 -28 -4 -28
-10z"/>
<path d="M6113 3183 c31 -2 83 -2 115 0 31 2 5 3 -58 3 -63 0 -89 -1 -57 -3z"/>
<path d="M6368 3173 c7 -3 16 -2 19 1 4 3 -2 6 -13 5 -11 0 -14 -3 -6 -6z"/>
<path d="M6483 3173 c32 -2 81 -2 110 0 29 2 3 3 -58 3 -60 0 -84 -1 -52 -3z"/>
<path d="M6688 3173 c6 -2 18 -2 25 0 6 3 1 5 -13 5 -14 0 -19 -2 -12 -5z"/>
<path d="M3475 1200 c3 -5 8 -10 11 -10 2 0 4 5 4 10 0 6 -5 10 -11 10 -5 0
-7 -4 -4 -10z"/>
<path d="M6258 3133 c12 -2 32 -2 45 0 12 2 2 4 -23 4 -25 0 -35 -2 -22 -4z"/>
<path d="M6488 3123 c7 -3 16 -2 19 1 4 3 -2 6 -13 5 -11 0 -14 -3 -6 -6z"/>
<path d="M6300 2885 c0 -8 4 -15 8 -15 5 0 9 7 9 15 0 8 -4 15 -9 15 -4 0 -8
-7 -8 -15z"/>
<path d="M7915 2890 c-3 -5 1 -10 10 -10 9 0 13 5 10 10 -3 6 -8 10 -10 10 -2
0 -7 -4 -10 -10z"/>
<path d="M6270 2870 c0 -5 5 -10 10 -10 6 0 10 5 10 10 0 6 -4 10 -10 10 -5 0
-10 -4 -10 -10z"/>
<path d="M6295 2840 c3 -5 8 -10 11 -10 2 0 4 5 4 10 0 6 -5 10 -11 10 -5 0
-7 -4 -4 -10z"/>
<path d="M8825 2880 c-3 -5 3 -10 15 -10 12 0 18 5 15 10 -3 6 -10 10 -15 10
-5 0 -12 -4 -15 -10z"/>
<path d="M4510 2580 c0 -5 6 -10 14 -10 8 0 18 5 21 10 3 6 -3 10 -14 10 -12
0 -21 -4 -21 -10z"/>
<path d="M3760 1000 c0 -5 18 -10 40 -10 22 0 40 5 40 10 0 6 -18 10 -40 10
-22 0 -40 -4 -40 -10z"/>
<path d="M185 1517 c-61 -24 -77 -37 -64 -53 17 -21 82 -18 103 5 18 20 19 52
1 57 -5 1 -23 -3 -40 -9z"/>
</g>
</svg>
